<mxfile host="Electron" modified="2023-05-16T13:33:57.531Z" agent="Mozilla/5.0 (Macintosh; Intel Mac OS X 10_15_7) AppleWebKit/537.36 (KHTML, like Gecko) draw.io/21.2.8 Chrome/112.0.5615.165 Electron/24.2.0 Safari/537.36" etag="MX0HSltjVMq5safMRxWw" version="21.2.8" type="device">
  <diagram name="Page-1" id="74e2e168-ea6b-b213-b513-2b3c1d86103e">
    <mxGraphModel dx="1739" dy="972" grid="1" gridSize="10" guides="1" tooltips="1" connect="1" arrows="1" fold="1" page="1" pageScale="1" pageWidth="1100" pageHeight="850" background="none" math="0" shadow="0">
      <root>
        <mxCell id="0" />
        <mxCell id="1" parent="0" />
        <mxCell id="77e6c97f196da883-1" value="&lt;font style=&quot;font-size: 16px;&quot;&gt;集采线下流程图&lt;/font&gt;" style="swimlane;html=1;childLayout=stackLayout;startSize=20;rounded=0;shadow=0;labelBackgroundColor=none;strokeWidth=1;fontFamily=Verdana;fontSize=8;align=center;" parent="1" vertex="1">
          <mxGeometry x="70" y="20" width="1060" height="1290" as="geometry" />
        </mxCell>
        <mxCell id="77e6c97f196da883-2" value="博大" style="swimlane;html=1;startSize=20;" parent="77e6c97f196da883-1" vertex="1">
          <mxGeometry y="20" width="290" height="1270" as="geometry" />
        </mxCell>
        <mxCell id="XwqVTGlZqVIml_d9xqTK-22" style="edgeStyle=orthogonalEdgeStyle;rounded=0;orthogonalLoop=1;jettySize=auto;html=1;entryX=0.5;entryY=0;entryDx=0;entryDy=0;" edge="1" parent="77e6c97f196da883-2" target="77e6c97f196da883-16">
          <mxGeometry relative="1" as="geometry">
            <mxPoint x="80" y="100" as="sourcePoint" />
            <mxPoint x="80" y="520" as="targetPoint" />
          </mxGeometry>
        </mxCell>
        <mxCell id="XwqVTGlZqVIml_d9xqTK-97" style="edgeStyle=orthogonalEdgeStyle;rounded=0;orthogonalLoop=1;jettySize=auto;html=1;" edge="1" parent="77e6c97f196da883-2" source="77e6c97f196da883-20" target="XwqVTGlZqVIml_d9xqTK-34">
          <mxGeometry relative="1" as="geometry" />
        </mxCell>
        <mxCell id="XwqVTGlZqVIml_d9xqTK-23" value="财务收单" style="rounded=1;whiteSpace=wrap;html=1;shadow=0;labelBackgroundColor=none;strokeWidth=1;fontFamily=Verdana;fontSize=8;align=center;" vertex="1" parent="77e6c97f196da883-2">
          <mxGeometry x="150" y="860" width="100" height="40" as="geometry" />
        </mxCell>
        <mxCell id="77e6c97f196da883-16" value="审批" style="rhombus;whiteSpace=wrap;html=1;rounded=0;shadow=0;labelBackgroundColor=none;strokeWidth=1;fontFamily=Verdana;fontSize=8;align=center;" parent="77e6c97f196da883-2" vertex="1">
          <mxGeometry x="40" y="700" width="80" height="40" as="geometry" />
        </mxCell>
        <mxCell id="XwqVTGlZqVIml_d9xqTK-67" value="签合同" style="ellipse;whiteSpace=wrap;html=1;" vertex="1" parent="77e6c97f196da883-2">
          <mxGeometry x="20" y="60" width="120" height="40" as="geometry" />
        </mxCell>
        <mxCell id="XwqVTGlZqVIml_d9xqTK-34" value="付款" style="rounded=1;whiteSpace=wrap;html=1;shadow=0;labelBackgroundColor=none;strokeWidth=1;fontFamily=Verdana;fontSize=8;align=center;" vertex="1" parent="77e6c97f196da883-2">
          <mxGeometry x="30" y="1020" width="100" height="40" as="geometry" />
        </mxCell>
        <mxCell id="XwqVTGlZqVIml_d9xqTK-24" value="" style="edgeStyle=orthogonalEdgeStyle;rounded=0;orthogonalLoop=1;jettySize=auto;html=1;" edge="1" parent="77e6c97f196da883-2" source="77e6c97f196da883-16" target="77e6c97f196da883-20">
          <mxGeometry relative="1" as="geometry">
            <mxPoint x="80" y="720" as="sourcePoint" />
          </mxGeometry>
        </mxCell>
        <mxCell id="XwqVTGlZqVIml_d9xqTK-87" value="" style="edgeStyle=orthogonalEdgeStyle;rounded=0;orthogonalLoop=1;jettySize=auto;html=1;" edge="1" parent="77e6c97f196da883-2" source="77e6c97f196da883-20" target="XwqVTGlZqVIml_d9xqTK-34">
          <mxGeometry relative="1" as="geometry">
            <mxPoint x="-100" y="1170" as="sourcePoint" />
            <mxPoint x="200" y="940" as="targetPoint" />
          </mxGeometry>
        </mxCell>
        <mxCell id="XwqVTGlZqVIml_d9xqTK-88" value="到账期" style="edgeLabel;html=1;align=center;verticalAlign=middle;resizable=0;points=[];" vertex="1" connectable="0" parent="XwqVTGlZqVIml_d9xqTK-87">
          <mxGeometry x="-0.2197" y="-2" relative="1" as="geometry">
            <mxPoint as="offset" />
          </mxGeometry>
        </mxCell>
        <mxCell id="XwqVTGlZqVIml_d9xqTK-95" style="edgeStyle=orthogonalEdgeStyle;rounded=0;orthogonalLoop=1;jettySize=auto;html=1;" edge="1" parent="77e6c97f196da883-2" source="XwqVTGlZqVIml_d9xqTK-85" target="XwqVTGlZqVIml_d9xqTK-23">
          <mxGeometry relative="1" as="geometry" />
        </mxCell>
        <mxCell id="XwqVTGlZqVIml_d9xqTK-85" value="出库/入库" style="shape=process;whiteSpace=wrap;html=1;backgroundOutline=1;fillColor=#ffe6cc;strokeColor=#d79b00;" vertex="1" parent="77e6c97f196da883-2">
          <mxGeometry x="140" y="780" width="120" height="40" as="geometry" />
        </mxCell>
        <mxCell id="XwqVTGlZqVIml_d9xqTK-100" value="" style="edgeStyle=orthogonalEdgeStyle;rounded=0;orthogonalLoop=1;jettySize=auto;html=1;" edge="1" parent="77e6c97f196da883-2" source="XwqVTGlZqVIml_d9xqTK-23" target="77e6c97f196da883-20">
          <mxGeometry relative="1" as="geometry">
            <mxPoint x="220" y="940" as="sourcePoint" />
            <mxPoint x="150" y="1080" as="targetPoint" />
          </mxGeometry>
        </mxCell>
        <mxCell id="77e6c97f196da883-20" value="3个月帐期" style="rhombus;whiteSpace=wrap;html=1;rounded=0;shadow=0;labelBackgroundColor=none;strokeWidth=1;fontFamily=Verdana;fontSize=8;align=center;" parent="77e6c97f196da883-2" vertex="1">
          <mxGeometry x="40" y="920" width="80" height="40" as="geometry" />
        </mxCell>
        <mxCell id="77e6c97f196da883-3" value="甲己平台" style="swimlane;html=1;startSize=20;" parent="77e6c97f196da883-1" vertex="1">
          <mxGeometry x="290" y="20" width="290" height="1270" as="geometry" />
        </mxCell>
        <mxCell id="XwqVTGlZqVIml_d9xqTK-99" style="edgeStyle=orthogonalEdgeStyle;rounded=0;orthogonalLoop=1;jettySize=auto;html=1;" edge="1" parent="77e6c97f196da883-3" source="77e6c97f196da883-19" target="XwqVTGlZqVIml_d9xqTK-84">
          <mxGeometry relative="1" as="geometry" />
        </mxCell>
        <mxCell id="77e6c97f196da883-19" value="申请付款" style="rounded=1;whiteSpace=wrap;html=1;shadow=0;labelBackgroundColor=none;strokeWidth=1;fontFamily=Verdana;fontSize=8;align=center;" parent="77e6c97f196da883-3" vertex="1">
          <mxGeometry x="30" y="700" width="100" height="40" as="geometry" />
        </mxCell>
        <mxCell id="XwqVTGlZqVIml_d9xqTK-93" style="edgeStyle=orthogonalEdgeStyle;rounded=0;orthogonalLoop=1;jettySize=auto;html=1;exitX=0.5;exitY=1;exitDx=0;exitDy=0;" edge="1" parent="77e6c97f196da883-3" source="XwqVTGlZqVIml_d9xqTK-27" target="XwqVTGlZqVIml_d9xqTK-90">
          <mxGeometry relative="1" as="geometry" />
        </mxCell>
        <mxCell id="XwqVTGlZqVIml_d9xqTK-27" value="开发票" style="rounded=1;whiteSpace=wrap;html=1;shadow=0;labelBackgroundColor=none;strokeWidth=1;fontFamily=Verdana;fontSize=8;align=center;" vertex="1" parent="77e6c97f196da883-3">
          <mxGeometry x="170" y="780" width="100" height="40" as="geometry" />
        </mxCell>
        <mxCell id="XwqVTGlZqVIml_d9xqTK-51" style="edgeStyle=orthogonalEdgeStyle;rounded=0;orthogonalLoop=1;jettySize=auto;html=1;" edge="1" parent="77e6c97f196da883-3" source="XwqVTGlZqVIml_d9xqTK-50" target="77e6c97f196da883-19">
          <mxGeometry relative="1" as="geometry" />
        </mxCell>
        <mxCell id="XwqVTGlZqVIml_d9xqTK-80" value="Y" style="edgeLabel;html=1;align=center;verticalAlign=middle;resizable=0;points=[];" vertex="1" connectable="0" parent="XwqVTGlZqVIml_d9xqTK-51">
          <mxGeometry x="-0.2556" y="1" relative="1" as="geometry">
            <mxPoint as="offset" />
          </mxGeometry>
        </mxCell>
        <mxCell id="XwqVTGlZqVIml_d9xqTK-50" value="审批" style="rhombus;whiteSpace=wrap;html=1;rounded=0;shadow=0;labelBackgroundColor=none;strokeWidth=1;fontFamily=Verdana;fontSize=8;align=center;" vertex="1" parent="77e6c97f196da883-3">
          <mxGeometry x="40" y="620" width="80" height="40" as="geometry" />
        </mxCell>
        <mxCell id="XwqVTGlZqVIml_d9xqTK-66" value="签合同" style="ellipse;whiteSpace=wrap;html=1;" vertex="1" parent="77e6c97f196da883-3">
          <mxGeometry x="85" y="60" width="120" height="40" as="geometry" />
        </mxCell>
        <mxCell id="XwqVTGlZqVIml_d9xqTK-83" style="edgeStyle=orthogonalEdgeStyle;rounded=0;orthogonalLoop=1;jettySize=auto;html=1;" edge="1" parent="77e6c97f196da883-3" source="77e6c97f196da883-19" target="XwqVTGlZqVIml_d9xqTK-27">
          <mxGeometry relative="1" as="geometry" />
        </mxCell>
        <mxCell id="XwqVTGlZqVIml_d9xqTK-54" value="开支票 3 个月期限" style="rounded=1;whiteSpace=wrap;html=1;shadow=0;labelBackgroundColor=none;strokeWidth=1;fontFamily=Verdana;fontSize=8;align=center;" vertex="1" parent="77e6c97f196da883-3">
          <mxGeometry x="170" y="700" width="100" height="40" as="geometry" />
        </mxCell>
        <mxCell id="XwqVTGlZqVIml_d9xqTK-26" value="" style="edgeStyle=orthogonalEdgeStyle;rounded=0;orthogonalLoop=1;jettySize=auto;html=1;" edge="1" parent="77e6c97f196da883-3" source="77e6c97f196da883-19" target="XwqVTGlZqVIml_d9xqTK-54">
          <mxGeometry relative="1" as="geometry" />
        </mxCell>
        <mxCell id="XwqVTGlZqVIml_d9xqTK-84" value="送货单" style="shape=process;whiteSpace=wrap;html=1;backgroundOutline=1;fillColor=#ffe6cc;strokeColor=#d79b00;" vertex="1" parent="77e6c97f196da883-3">
          <mxGeometry x="20" y="780" width="120" height="40" as="geometry" />
        </mxCell>
        <mxCell id="XwqVTGlZqVIml_d9xqTK-90" value="收款" style="shape=hexagon;perimeter=hexagonPerimeter2;whiteSpace=wrap;html=1;fixedSize=1;" vertex="1" parent="77e6c97f196da883-3">
          <mxGeometry x="170" y="1060" width="100" height="40" as="geometry" />
        </mxCell>
        <mxCell id="77e6c97f196da883-4" value="供应商" style="swimlane;html=1;startSize=20;" parent="77e6c97f196da883-1" vertex="1">
          <mxGeometry x="580" y="20" width="160" height="1270" as="geometry" />
        </mxCell>
        <mxCell id="XwqVTGlZqVIml_d9xqTK-10" value="" style="edgeStyle=orthogonalEdgeStyle;rounded=0;orthogonalLoop=1;jettySize=auto;html=1;fillColor=#fff2cc;strokeColor=#d6b656;" edge="1" parent="77e6c97f196da883-4" source="77e6c97f196da883-12" target="77e6c97f196da883-24">
          <mxGeometry relative="1" as="geometry" />
        </mxCell>
        <mxCell id="77e6c97f196da883-12" value="接单" style="rounded=1;whiteSpace=wrap;html=1;shadow=0;labelBackgroundColor=none;strokeWidth=1;fontFamily=Verdana;fontSize=8;align=center;fillColor=#fff2cc;strokeColor=#d6b656;" parent="77e6c97f196da883-4" vertex="1">
          <mxGeometry x="30" y="140" width="100" height="40" as="geometry" />
        </mxCell>
        <mxCell id="77e6c97f196da883-14" value="送货" style="rounded=1;whiteSpace=wrap;html=1;shadow=0;labelBackgroundColor=none;strokeWidth=1;fontFamily=Verdana;fontSize=8;align=center;fillColor=#fff2cc;strokeColor=#d6b656;" parent="77e6c97f196da883-4" vertex="1">
          <mxGeometry x="30" y="300" width="100" height="40" as="geometry" />
        </mxCell>
        <mxCell id="XwqVTGlZqVIml_d9xqTK-7" style="edgeStyle=orthogonalEdgeStyle;rounded=0;orthogonalLoop=1;jettySize=auto;html=1;" edge="1" parent="77e6c97f196da883-4" target="77e6c97f196da883-12">
          <mxGeometry relative="1" as="geometry">
            <mxPoint x="80" y="100" as="sourcePoint" />
          </mxGeometry>
        </mxCell>
        <mxCell id="XwqVTGlZqVIml_d9xqTK-11" style="edgeStyle=orthogonalEdgeStyle;rounded=0;orthogonalLoop=1;jettySize=auto;html=1;fillColor=#fff2cc;strokeColor=#d6b656;" edge="1" parent="77e6c97f196da883-4" source="77e6c97f196da883-24" target="77e6c97f196da883-14">
          <mxGeometry relative="1" as="geometry" />
        </mxCell>
        <mxCell id="77e6c97f196da883-24" value="生产" style="rounded=1;whiteSpace=wrap;html=1;shadow=0;labelBackgroundColor=none;strokeWidth=1;fontFamily=Verdana;fontSize=8;align=center;fillColor=#fff2cc;strokeColor=#d6b656;" parent="77e6c97f196da883-4" vertex="1">
          <mxGeometry x="30" y="220" width="100" height="40" as="geometry" />
        </mxCell>
        <mxCell id="77e6c97f196da883-23" value="对账" style="rounded=1;whiteSpace=wrap;html=1;shadow=0;labelBackgroundColor=none;strokeWidth=1;fontFamily=Verdana;fontSize=8;align=center;fillColor=#fff2cc;strokeColor=#d6b656;" parent="77e6c97f196da883-4" vertex="1">
          <mxGeometry x="30" y="460" width="100" height="40" as="geometry" />
        </mxCell>
        <mxCell id="XwqVTGlZqVIml_d9xqTK-38" value="" style="edgeStyle=orthogonalEdgeStyle;rounded=0;orthogonalLoop=1;jettySize=auto;html=1;" edge="1" parent="77e6c97f196da883-4" source="77e6c97f196da883-22" target="XwqVTGlZqVIml_d9xqTK-37">
          <mxGeometry relative="1" as="geometry">
            <mxPoint x="80" y="970" as="targetPoint" />
          </mxGeometry>
        </mxCell>
        <mxCell id="77e6c97f196da883-22" value="收到支票" style="rounded=1;whiteSpace=wrap;html=1;shadow=0;labelBackgroundColor=none;strokeWidth=1;fontFamily=Verdana;fontSize=8;align=center;" parent="77e6c97f196da883-4" vertex="1">
          <mxGeometry x="30" y="700" width="100" height="40" as="geometry" />
        </mxCell>
        <mxCell id="XwqVTGlZqVIml_d9xqTK-37" value="供应商提现" style="rounded=1;whiteSpace=wrap;html=1;shadow=0;labelBackgroundColor=none;strokeWidth=1;fontFamily=Verdana;fontSize=8;align=center;" vertex="1" parent="77e6c97f196da883-4">
          <mxGeometry x="30" y="860" width="100" height="40" as="geometry" />
        </mxCell>
        <mxCell id="XwqVTGlZqVIml_d9xqTK-56" value="开发票" style="rounded=1;whiteSpace=wrap;html=1;shadow=0;labelBackgroundColor=none;strokeWidth=1;fontFamily=Verdana;fontSize=8;align=center;" vertex="1" parent="77e6c97f196da883-4">
          <mxGeometry x="30" y="540" width="100" height="40" as="geometry" />
        </mxCell>
        <mxCell id="XwqVTGlZqVIml_d9xqTK-57" value="" style="edgeStyle=orthogonalEdgeStyle;rounded=0;orthogonalLoop=1;jettySize=auto;html=1;" edge="1" parent="77e6c97f196da883-4" source="77e6c97f196da883-23" target="XwqVTGlZqVIml_d9xqTK-56">
          <mxGeometry relative="1" as="geometry">
            <mxPoint x="470" y="600" as="sourcePoint" />
            <mxPoint x="470" y="800" as="targetPoint" />
          </mxGeometry>
        </mxCell>
        <mxCell id="XwqVTGlZqVIml_d9xqTK-63" value="" style="edgeStyle=orthogonalEdgeStyle;rounded=0;orthogonalLoop=1;jettySize=auto;html=1;entryX=0.5;entryY=0;entryDx=0;entryDy=0;fillColor=#fff2cc;strokeColor=#d6b656;" edge="1" parent="77e6c97f196da883-4" source="77e6c97f196da883-14" target="77e6c97f196da883-23">
          <mxGeometry relative="1" as="geometry">
            <mxPoint x="80" y="380" as="targetPoint" />
          </mxGeometry>
        </mxCell>
        <mxCell id="XwqVTGlZqVIml_d9xqTK-65" value="签合同" style="ellipse;whiteSpace=wrap;html=1;" vertex="1" parent="77e6c97f196da883-4">
          <mxGeometry x="20" y="60" width="120" height="40" as="geometry" />
        </mxCell>
        <mxCell id="XwqVTGlZqVIml_d9xqTK-8" style="edgeStyle=orthogonalEdgeStyle;rounded=0;orthogonalLoop=1;jettySize=auto;html=1;fillColor=#fff2cc;strokeColor=#d6b656;" edge="1" parent="77e6c97f196da883-1" source="77e6c97f196da883-14" target="77e6c97f196da883-17">
          <mxGeometry relative="1" as="geometry" />
        </mxCell>
        <mxCell id="XwqVTGlZqVIml_d9xqTK-6" style="edgeStyle=orthogonalEdgeStyle;rounded=0;orthogonalLoop=1;jettySize=auto;html=1;fillColor=#fff2cc;strokeColor=#d6b656;" edge="1" parent="77e6c97f196da883-1" source="77e6c97f196da883-15" target="77e6c97f196da883-12">
          <mxGeometry relative="1" as="geometry" />
        </mxCell>
        <mxCell id="XwqVTGlZqVIml_d9xqTK-12" style="edgeStyle=orthogonalEdgeStyle;rounded=0;orthogonalLoop=1;jettySize=auto;html=1;startArrow=classic;startFill=1;fillColor=#fff2cc;strokeColor=#d6b656;" edge="1" parent="77e6c97f196da883-1" source="77e6c97f196da883-18" target="77e6c97f196da883-23">
          <mxGeometry relative="1" as="geometry" />
        </mxCell>
        <mxCell id="XwqVTGlZqVIml_d9xqTK-32" style="edgeStyle=orthogonalEdgeStyle;rounded=0;orthogonalLoop=1;jettySize=auto;html=1;entryX=1;entryY=0.5;entryDx=0;entryDy=0;" edge="1" parent="77e6c97f196da883-1" source="77e6c97f196da883-19" target="77e6c97f196da883-16">
          <mxGeometry relative="1" as="geometry" />
        </mxCell>
        <mxCell id="XwqVTGlZqVIml_d9xqTK-43" style="edgeStyle=orthogonalEdgeStyle;rounded=0;orthogonalLoop=1;jettySize=auto;html=1;" edge="1" parent="77e6c97f196da883-1" source="77e6c97f196da883-23" target="XwqVTGlZqVIml_d9xqTK-50">
          <mxGeometry relative="1" as="geometry" />
        </mxCell>
        <mxCell id="XwqVTGlZqVIml_d9xqTK-44" value="对账单" style="edgeLabel;html=1;align=center;verticalAlign=middle;resizable=0;points=[];" vertex="1" connectable="0" parent="XwqVTGlZqVIml_d9xqTK-43">
          <mxGeometry x="-0.2742" y="-3" relative="1" as="geometry">
            <mxPoint as="offset" />
          </mxGeometry>
        </mxCell>
        <mxCell id="XwqVTGlZqVIml_d9xqTK-47" style="edgeStyle=orthogonalEdgeStyle;rounded=0;orthogonalLoop=1;jettySize=auto;html=1;entryX=0.5;entryY=0;entryDx=0;entryDy=0;" edge="1" parent="77e6c97f196da883-1" source="XwqVTGlZqVIml_d9xqTK-19" target="XwqVTGlZqVIml_d9xqTK-50">
          <mxGeometry relative="1" as="geometry">
            <mxPoint x="240" y="630" as="targetPoint" />
          </mxGeometry>
        </mxCell>
        <mxCell id="77e6c97f196da883-5" value="联营客户" style="swimlane;html=1;startSize=20;" parent="77e6c97f196da883-1" vertex="1">
          <mxGeometry x="740" y="20" width="160" height="1270" as="geometry" />
        </mxCell>
        <mxCell id="XwqVTGlZqVIml_d9xqTK-9" value="" style="edgeStyle=orthogonalEdgeStyle;rounded=0;orthogonalLoop=1;jettySize=auto;html=1;fillColor=#fff2cc;strokeColor=#d6b656;" edge="1" parent="77e6c97f196da883-5" source="77e6c97f196da883-15" target="77e6c97f196da883-17">
          <mxGeometry relative="1" as="geometry" />
        </mxCell>
        <mxCell id="77e6c97f196da883-15" value="下料" style="rounded=1;whiteSpace=wrap;html=1;shadow=0;labelBackgroundColor=none;strokeWidth=1;fontFamily=Verdana;fontSize=8;align=center;fillColor=#fff2cc;strokeColor=#d6b656;" parent="77e6c97f196da883-5" vertex="1">
          <mxGeometry x="30" y="140" width="100" height="40" as="geometry" />
        </mxCell>
        <mxCell id="XwqVTGlZqVIml_d9xqTK-74" style="edgeStyle=orthogonalEdgeStyle;rounded=0;orthogonalLoop=1;jettySize=auto;html=1;fillColor=#fff2cc;strokeColor=#d6b656;" edge="1" parent="77e6c97f196da883-5" source="77e6c97f196da883-17" target="77e6c97f196da883-18">
          <mxGeometry relative="1" as="geometry">
            <mxPoint x="50" y="410" as="targetPoint" />
          </mxGeometry>
        </mxCell>
        <mxCell id="77e6c97f196da883-17" value="收货" style="rounded=1;whiteSpace=wrap;html=1;shadow=0;labelBackgroundColor=none;strokeWidth=1;fontFamily=Verdana;fontSize=8;align=center;fillColor=#fff2cc;strokeColor=#d6b656;" parent="77e6c97f196da883-5" vertex="1">
          <mxGeometry x="30" y="380" width="100" height="40" as="geometry" />
        </mxCell>
        <mxCell id="XwqVTGlZqVIml_d9xqTK-46" style="edgeStyle=orthogonalEdgeStyle;rounded=0;orthogonalLoop=1;jettySize=auto;html=1;" edge="1" parent="77e6c97f196da883-5" source="77e6c97f196da883-18" target="XwqVTGlZqVIml_d9xqTK-19">
          <mxGeometry relative="1" as="geometry" />
        </mxCell>
        <mxCell id="77e6c97f196da883-18" value="对账" style="rounded=1;whiteSpace=wrap;html=1;shadow=0;labelBackgroundColor=none;strokeWidth=1;fontFamily=Verdana;fontSize=8;align=center;fillColor=#fff2cc;strokeColor=#d6b656;" parent="77e6c97f196da883-5" vertex="1">
          <mxGeometry x="30" y="460" width="100" height="40" as="geometry" />
        </mxCell>
        <mxCell id="XwqVTGlZqVIml_d9xqTK-19" value="付款委托" style="rounded=1;whiteSpace=wrap;html=1;shadow=0;labelBackgroundColor=none;strokeWidth=1;fontFamily=Verdana;fontSize=8;align=center;" vertex="1" parent="77e6c97f196da883-5">
          <mxGeometry x="30" y="580" width="100" height="40" as="geometry" />
        </mxCell>
        <mxCell id="77e6c97f196da883-6" value="表单" style="swimlane;html=1;startSize=20;" parent="77e6c97f196da883-1" vertex="1">
          <mxGeometry x="900" y="20" width="160" height="1270" as="geometry" />
        </mxCell>
        <mxCell id="XwqVTGlZqVIml_d9xqTK-72" value="入库单/出库单" style="shape=document;whiteSpace=wrap;html=1;boundedLbl=1;" vertex="1" parent="77e6c97f196da883-6">
          <mxGeometry x="20" y="380" width="120" height="60" as="geometry" />
        </mxCell>
        <mxCell id="XwqVTGlZqVIml_d9xqTK-73" value="送货单" style="shape=document;whiteSpace=wrap;html=1;boundedLbl=1;" vertex="1" parent="77e6c97f196da883-6">
          <mxGeometry x="20" y="290" width="120" height="60" as="geometry" />
        </mxCell>
        <mxCell id="XwqVTGlZqVIml_d9xqTK-75" value="对账单" style="shape=document;whiteSpace=wrap;html=1;boundedLbl=1;" vertex="1" parent="77e6c97f196da883-6">
          <mxGeometry x="20" y="460" width="120" height="50" as="geometry" />
        </mxCell>
        <mxCell id="XwqVTGlZqVIml_d9xqTK-76" value="合同" style="shape=document;whiteSpace=wrap;html=1;boundedLbl=1;" vertex="1" parent="77e6c97f196da883-6">
          <mxGeometry x="20" y="60" width="120" height="60" as="geometry" />
        </mxCell>
        <mxCell id="XwqVTGlZqVIml_d9xqTK-77" value="下料单" style="shape=document;whiteSpace=wrap;html=1;boundedLbl=1;" vertex="1" parent="77e6c97f196da883-6">
          <mxGeometry x="20" y="140" width="120" height="60" as="geometry" />
        </mxCell>
        <mxCell id="XwqVTGlZqVIml_d9xqTK-78" value="发票" style="shape=document;whiteSpace=wrap;html=1;boundedLbl=1;" vertex="1" parent="77e6c97f196da883-6">
          <mxGeometry x="20" y="540" width="120" height="40" as="geometry" />
        </mxCell>
        <mxCell id="XwqVTGlZqVIml_d9xqTK-79" value="委托书" style="shape=document;whiteSpace=wrap;html=1;boundedLbl=1;" vertex="1" parent="77e6c97f196da883-6">
          <mxGeometry x="20" y="595" width="120" height="60" as="geometry" />
        </mxCell>
        <mxCell id="XwqVTGlZqVIml_d9xqTK-81" value="付款单" style="shape=document;whiteSpace=wrap;html=1;boundedLbl=1;" vertex="1" parent="77e6c97f196da883-6">
          <mxGeometry x="20" y="700" width="120" height="60" as="geometry" />
        </mxCell>
        <mxCell id="XwqVTGlZqVIml_d9xqTK-82" value="支票" style="shape=document;whiteSpace=wrap;html=1;boundedLbl=1;" vertex="1" parent="77e6c97f196da883-6">
          <mxGeometry x="20" y="780" width="120" height="60" as="geometry" />
        </mxCell>
        <mxCell id="XwqVTGlZqVIml_d9xqTK-64" style="edgeStyle=orthogonalEdgeStyle;rounded=0;orthogonalLoop=1;jettySize=auto;html=1;entryX=0.5;entryY=0;entryDx=0;entryDy=0;" edge="1" parent="77e6c97f196da883-1" source="XwqVTGlZqVIml_d9xqTK-56" target="XwqVTGlZqVIml_d9xqTK-50">
          <mxGeometry relative="1" as="geometry" />
        </mxCell>
        <mxCell id="XwqVTGlZqVIml_d9xqTK-36" style="edgeStyle=orthogonalEdgeStyle;rounded=0;orthogonalLoop=1;jettySize=auto;html=1;entryX=0.5;entryY=0;entryDx=0;entryDy=0;" edge="1" parent="77e6c97f196da883-1" source="XwqVTGlZqVIml_d9xqTK-34" target="XwqVTGlZqVIml_d9xqTK-90">
          <mxGeometry relative="1" as="geometry">
            <mxPoint x="320" y="1140" as="targetPoint" />
          </mxGeometry>
        </mxCell>
        <mxCell id="XwqVTGlZqVIml_d9xqTK-69" style="edgeStyle=orthogonalEdgeStyle;rounded=0;orthogonalLoop=1;jettySize=auto;html=1;" edge="1" parent="77e6c97f196da883-1" source="XwqVTGlZqVIml_d9xqTK-66" target="XwqVTGlZqVIml_d9xqTK-67">
          <mxGeometry relative="1" as="geometry" />
        </mxCell>
        <mxCell id="XwqVTGlZqVIml_d9xqTK-71" style="edgeStyle=orthogonalEdgeStyle;rounded=0;orthogonalLoop=1;jettySize=auto;html=1;" edge="1" parent="77e6c97f196da883-1" source="XwqVTGlZqVIml_d9xqTK-65" target="XwqVTGlZqVIml_d9xqTK-66">
          <mxGeometry relative="1" as="geometry" />
        </mxCell>
        <mxCell id="XwqVTGlZqVIml_d9xqTK-55" style="edgeStyle=orthogonalEdgeStyle;rounded=0;orthogonalLoop=1;jettySize=auto;html=1;" edge="1" parent="77e6c97f196da883-1" source="XwqVTGlZqVIml_d9xqTK-54" target="77e6c97f196da883-22">
          <mxGeometry relative="1" as="geometry" />
        </mxCell>
        <mxCell id="XwqVTGlZqVIml_d9xqTK-98" style="edgeStyle=orthogonalEdgeStyle;rounded=0;orthogonalLoop=1;jettySize=auto;html=1;" edge="1" parent="77e6c97f196da883-1" source="XwqVTGlZqVIml_d9xqTK-84" target="XwqVTGlZqVIml_d9xqTK-85">
          <mxGeometry relative="1" as="geometry" />
        </mxCell>
      </root>
    </mxGraphModel>
  </diagram>
</mxfile>
